<?xml version="1.0" standalone="no"?>
<!DOCTYPE svg PUBLIC "-//W3C//DTD SVG 20010904//EN"
 "http://www.w3.org/TR/2001/REC-SVG-20010904/DTD/svg10.dtd">
<svg version="1.0" xmlns="http://www.w3.org/2000/svg"
 width="500.000000pt" height="500.000000pt" viewBox="0 0 500.000000 500.000000"
 preserveAspectRatio="xMidYMid meet">
<metadata>
Created by potrace 1.14, written by Peter Selinger 2001-2017
</metadata>
<g transform="translate(0.000000,500.000000) scale(0.100000,-0.100000)"
fill="#000000" stroke="none">
<path d="M2066 3504 c-247 -85 -450 -155 -452 -157 -1 -1 58 -67 131 -147 133
-145 133 -145 120 -175 -7 -16 -92 -216 -189 -443 l-177 -414 78 -85 c158
-171 194 -208 199 -198 45 97 750 1775 745 1774 -3 0 -208 -70 -455 -155z"/>
<path d="M2557 3643 c-18 -31 -128 -314 -124 -320 3 -5 78 -37 166 -73 89 -36
161 -67 160 -70 0 -3 -117 -104 -259 -225 -142 -121 -259 -223 -259 -226 -1
-3 71 -58 159 -122 l161 -117 457 381 c251 210 463 387 469 393 10 9 -93 54
-440 194 -530 213 -484 195 -490 185z"/>
<path d="M2900 2573 c-30 -65 -68 -151 -86 -190 l-33 -73 138 0 138 0 63 138
c35 75 74 161 86 190 l24 52 -139 0 -138 0 -53 -117z"/>
<path d="M2184 2643 c-4 -15 -26 -100 -50 -188 -23 -88 -41 -160 -41 -161 1
-1 110 -90 242 -199 l240 -197 95 6 c52 3 188 9 303 12 114 4 207 10 207 13
-1 5 -945 716 -976 734 -9 5 -15 -1 -20 -20z"/>
<path d="M1302 1798 c-11 -24 -49 -109 -86 -189 -36 -81 -66 -149 -66 -153 0
-3 290 -5 645 -4 l646 3 79 174 c44 95 82 182 85 192 6 18 -12 19 -639 19
l-645 0 -19 -42z"/>
<path d="M3666 1808 c-7 -18 -46 -104 -85 -191 -39 -86 -71 -160 -71 -163 0
-2 39 -3 86 -2 l87 3 78 174 c43 95 81 182 84 192 6 18 0 19 -79 19 l-86 0
-14 -32z"/>
<path d="M2698 1754 c-5 -4 -8 -49 -8 -101 0 -86 1 -93 20 -93 16 0 20 7 20
35 0 19 4 35 9 35 5 0 21 -16 35 -35 24 -31 33 -35 70 -35 50 0 56 8 56 73 0
48 10 41 35 -26 10 -26 23 -46 28 -44 6 2 18 24 26 49 19 57 31 70 31 36 0
-55 12 -88 32 -88 16 0 18 5 14 33 -3 17 -8 63 -11 100 -6 62 -9 68 -27 65
-15 -2 -27 -18 -41 -55 -11 -29 -22 -53 -26 -53 -3 0 -15 24 -26 53 -15 37
-27 53 -41 55 -19 3 -22 -4 -28 -59 -3 -34 -6 -77 -6 -95 0 -43 -12 -43 -45 1
-25 32 -26 36 -11 50 20 21 21 69 1 85 -18 15 -97 25 -107 14z m80 -56 c-2
-15 -11 -24 -25 -26 -19 -3 -23 1 -23 22 0 21 5 26 26 26 21 0 25 -4 22 -22z"/>
<path d="M3090 1659 l0 -102 52 5 c64 7 98 39 98 96 0 49 -22 79 -68 92 -82
22 -82 23 -82 -91z m92 44 c35 -31 12 -103 -34 -103 -15 0 -18 8 -18 60 0 65
14 77 52 43z"/>
<path d="M3270 1660 c0 -93 1 -100 20 -100 16 0 19 8 22 63 l3 62 39 -62 c25
-41 45 -63 57 -63 17 0 19 9 19 101 0 90 -2 100 -17 97 -14 -2 -19 -16 -23
-60 l-5 -58 -39 60 c-24 39 -45 60 -57 60 -17 0 -19 -9 -19 -100z"/>
</g>
</svg>
